<?xml version="1.0" standalone="no"?>
<!DOCTYPE svg PUBLIC "-//W3C//DTD SVG 20010904//EN"
 "http://www.w3.org/TR/2001/REC-SVG-20010904/DTD/svg10.dtd">
<svg version="1.0" xmlns="http://www.w3.org/2000/svg"
 width="315.000000pt" height="316.000000pt" viewBox="0 0 315.000000 316.000000"
 preserveAspectRatio="xMidYMid meet">

<g transform="translate(0.000000,316.000000) scale(0.100000,-0.100000)"
fill="#000000" stroke="none">
<path d="M1380 3085 c-276 -37 -516 -138 -734 -309 -665 -522 -780 -1469 -261
-2141 79 -101 228 -245 327 -313 170 -116 400 -212 598 -249 133 -24 411 -24
540 1 587 113 1050 546 1200 1122 130 501 -10 1043 -371 1428 -126 135 -270
239 -452 327 -261 125 -559 172 -847 134z m435 -81 c582 -92 1051 -546 1180
-1144 23 -106 31 -367 15 -483 -28 -205 -115 -432 -237 -616 -80 -120 -271
-309 -398 -393 -423 -280 -948 -318 -1413 -102 -422 196 -731 609 -807 1079
-18 109 -21 353 -5 450 36 233 132 460 273 648 326 434 851 646 1392 561z"/>
<path d="M1782 2630 c0 -14 2 -19 5 -12 2 6 2 18 0 25 -3 6 -5 1 -5 -13z"/>
<path d="M1865 2590 c-3 -5 -2 -10 4 -10 5 0 13 5 16 10 3 6 2 10 -4 10 -5 0
-13 -4 -16 -10z"/>
<path d="M1726 2564 c-33 -34 -33 -64 0 -120 24 -40 29 -44 65 -44 24 0 39 5
39 13 0 6 9 23 20 37 66 85 -48 190 -124 114z"/>
<path d="M1658 2503 c7 -3 16 -2 19 1 4 3 -2 6 -13 5 -11 0 -14 -3 -6 -6z"/>
<path d="M1908 2503 c7 -3 16 -2 19 1 4 3 -2 6 -13 5 -11 0 -14 -3 -6 -6z"/>
<path d="M1440 2468 c0 -13 -7 -32 -15 -42 -8 -11 -15 -34 -15 -52 0 -18 -4
-36 -10 -39 -24 -15 -13 -36 62 -116 38 -42 89 -40 129 4 16 17 38 41 49 53
22 23 26 49 10 59 -5 3 -10 22 -10 40 0 67 -69 114 -167 115 -28 0 -33 -4 -33
-22z"/>
<path d="M1750 2366 c0 -15 7 -27 19 -31 28 -9 51 5 51 31 0 21 -5 24 -35 24
-30 0 -35 -3 -35 -24z"/>
<path d="M1508 2154 c-3 -3 -4 -22 -1 -42 2 -20 0 -55 -4 -77 l-9 -40 -44 75
-43 76 -61 -19 c-34 -10 -68 -22 -76 -26 -29 -15 -40 -55 -40 -152 l0 -95 68
-28 c37 -15 85 -35 107 -44 25 -9 70 -15 120 -15 65 0 92 5 145 27 36 16 85
35 108 45 l44 16 -4 107 c-3 87 -7 110 -22 127 -11 12 -26 21 -35 21 -9 1 -39
9 -67 18 l-51 18 -42 -74 c-23 -41 -44 -72 -46 -70 -11 10 -21 118 -12 127 5
5 6 14 3 20 -8 12 -29 15 -38 5z"/>
<path d="M707 1473 c-4 -3 -7 -107 -7 -230 l0 -223 30 0 30 0 1 98 0 97 27
-95 c25 -88 29 -95 55 -98 15 -2 27 0 27 5 0 4 -14 53 -30 108 -16 55 -30 109
-30 120 0 11 14 63 30 115 17 51 30 98 30 103 0 4 -12 7 -27 5 -25 -3 -30 -11
-54 -88 l-27 -85 -1 88 c-1 84 -2 87 -24 87 -13 0 -27 -3 -30 -7z"/>
<path d="M950 1251 l0 -231 25 0 25 0 0 110 c0 101 2 110 19 110 31 0 39 -21
47 -123 l7 -97 28 0 c25 0 28 3 24 28 -2 15 -7 61 -10 102 -4 42 -10 82 -15
90 -5 8 -4 22 2 33 5 11 10 51 10 89 1 91 -16 110 -102 116 l-60 4 0 -231z
m108 125 c5 -72 -4 -96 -33 -96 -24 0 -25 2 -25 76 l0 75 28 -3 c25 -3 27 -7
30 -52z"/>
<path d="M1248 1469 c-29 -17 -38 -77 -38 -266 l0 -183 30 0 30 0 0 65 c0 63
1 65 25 65 24 0 25 -2 25 -65 l0 -65 30 0 30 0 0 183 c0 192 -9 250 -40 267
-24 13 -70 12 -92 -1z m66 -45 c3 -9 6 -63 6 -120 l0 -104 -25 0 -25 0 0 104
c0 111 5 136 25 136 7 0 16 -7 19 -16z"/>
<path d="M1477 1473 c-4 -3 -7 -107 -7 -230 l0 -223 30 0 30 0 1 103 c1 110 7
103 29 -30 9 -59 15 -73 29 -73 15 0 21 18 35 102 9 56 19 104 21 107 3 2 5
-44 5 -102 l0 -107 25 0 25 0 0 230 0 230 -25 0 c-14 0 -25 -3 -25 -6 0 -21
-53 -260 -60 -267 -4 -5 -20 55 -36 132 -26 127 -31 141 -50 141 -11 0 -24 -3
-27 -7z"/>
<path d="M1800 1250 l0 -230 25 0 c25 0 25 0 25 94 l0 94 40 7 c60 10 75 40
74 139 -1 73 -3 81 -28 103 -21 18 -39 23 -82 23 l-54 0 0 -230z m111 135 c4
-22 4 -58 0 -80 -5 -34 -10 -40 -34 -43 l-27 -3 0 86 0 86 27 -3 c24 -3 29 -9
34 -43z"/>
<path d="M2041 1277 c3 -170 7 -207 21 -229 21 -32 61 -43 96 -26 47 23 52 47
52 261 l0 197 -25 0 -25 0 0 -154 c0 -84 -3 -174 -6 -200 -7 -49 -29 -71 -45
-45 -5 8 -9 101 -9 207 l0 192 -31 0 -31 0 3 -203z"/>
<path d="M2321 1463 c-27 -23 -37 -93 -22 -149 8 -30 24 -52 55 -77 46 -39 60
-74 49 -128 -12 -60 -53 -46 -53 19 0 29 -3 32 -31 32 l-30 0 7 -47 c3 -27 11
-56 16 -66 21 -41 105 -43 133 -3 10 13 15 46 15 95 l0 74 -55 52 c-52 51 -55
56 -55 103 0 77 44 100 52 27 2 -25 8 -31 32 -33 28 -4 29 -3 23 38 -3 23 -13
50 -23 61 -22 24 -84 25 -113 2z"/>
<path d="M898 829 c-26 -15 -24 -80 3 -105 30 -27 41 -52 34 -74 -8 -26 -23
-25 -27 2 -4 31 -28 35 -28 5 0 -31 22 -50 52 -45 20 3 23 10 26 48 2 38 -1
50 -23 70 -15 14 -25 34 -25 52 0 30 14 38 24 13 8 -21 26 -19 26 3 0 20 -18
42 -34 42 -6 0 -19 -5 -28 -11z"/>
<path d="M1008 829 c-15 -8 -18 -25 -18 -109 0 -84 3 -101 18 -108 19 -10 43
-5 54 12 4 6 8 52 8 103 0 81 -2 94 -19 103 -23 12 -22 12 -43 -1z m38 -55 c6
-44 -1 -132 -12 -143 -19 -19 -35 129 -18 173 11 29 23 17 30 -30z"/>
<path d="M1100 726 l0 -116 30 0 c17 0 30 5 30 10 0 6 -7 10 -15 10 -11 0 -15
20 -17 102 -2 70 -7 103 -15 106 -10 3 -13 -24 -13 -112z"/>
<path d="M1180 742 c0 -109 10 -136 50 -130 19 2 26 11 32 43 12 57 6 177 -9
182 -9 3 -13 -23 -15 -96 -4 -133 -22 -133 -26 -1 -2 80 -6 100 -17 100 -12 0
-15 -19 -15 -98z"/>
<path d="M1287 834 c-12 -12 -8 -24 8 -24 12 0 15 -18 15 -100 0 -82 3 -100
15 -100 12 0 15 18 15 100 0 85 2 100 16 100 9 0 14 6 12 13 -5 13 -69 22 -81
11z"/>
<path d="M1390 725 c0 -70 4 -115 10 -115 6 0 10 45 10 115 0 70 -4 115 -10
115 -6 0 -10 -45 -10 -115z"/>
<path d="M1456 825 c-12 -12 -16 -36 -16 -96 0 -92 10 -119 46 -119 32 0 44
32 44 113 0 95 -34 141 -74 102z m42 -105 c-2 -56 -7 -85 -15 -88 -10 -3 -13
19 -13 86 0 49 3 92 7 96 16 16 24 -17 21 -94z"/>
<path d="M1557 833 c-4 -3 -7 -55 -7 -115 0 -89 3 -108 15 -108 11 0 15 14 16
58 l1 57 18 -55 c29 -91 40 -76 40 54 0 122 -17 163 -22 54 l-3 -63 -19 63
c-19 60 -25 69 -39 55z"/>
<path d="M1682 828 c-22 -22 -14 -82 13 -108 17 -16 25 -34 25 -57 0 -37 -17
-45 -22 -11 -4 31 -28 35 -28 5 0 -31 22 -50 52 -45 20 3 23 10 26 48 2 38 -1
50 -23 70 -25 24 -34 73 -15 85 6 3 10 -3 10 -14 0 -12 7 -21 15 -21 18 0 20
31 3 48 -7 7 -19 12 -28 12 -9 0 -21 -5 -28 -12z"/>
<path d="M1858 829 c-15 -8 -18 -25 -18 -109 0 -84 3 -101 18 -108 39 -21 62
5 62 71 0 40 -3 47 -20 47 -11 0 -20 -7 -20 -15 0 -8 5 -15 11 -15 10 0 4 -58
-8 -70 -18 -20 -33 132 -16 175 5 15 8 15 24 -6 22 -29 36 -18 21 16 -12 27
-27 30 -54 14z"/>
<path d="M1950 725 c0 -70 4 -115 10 -115 6 0 10 45 10 115 0 70 -4 115 -10
115 -6 0 -10 -45 -10 -115z"/>
<path d="M2000 819 c0 -11 5 -63 12 -115 10 -80 14 -94 30 -94 10 0 18 3 18 8
0 4 7 52 15 107 18 123 18 115 1 115 -13 0 -25 -56 -27 -129 0 -29 -2 -32 -9
-16 -5 11 -9 38 -9 60 -1 50 -11 85 -22 85 -5 0 -9 -9 -9 -21z"/>
<path d="M2110 725 l0 -115 35 0 c19 0 35 5 35 10 0 6 -9 10 -20 10 -17 0 -20
7 -20 45 0 33 4 45 15 45 8 0 15 5 15 10 0 6 -7 10 -15 10 -10 0 -15 10 -15
34 0 26 5 35 21 39 29 8 14 27 -22 27 l-29 0 0 -115z"/>
<path d="M2200 725 c0 -70 4 -115 10 -115 6 0 10 23 10 51 0 60 13 57 29 -6 7
-29 17 -45 26 -45 13 0 15 17 13 112 -2 78 -7 113 -15 116 -10 3 -13 -15 -14
-65 0 -37 -2 -63 -4 -58 -2 6 -11 36 -20 68 -9 31 -21 57 -26 57 -5 0 -9 -51
-9 -115z"/>
</g>
</svg>
